<svg xmlns="http://www.w3.org/2000/svg" version="1.1" xmlns:xlink="http://www.w3.org/1999/xlink" xmlns:svgjs="http://svgjs.dev/svgjs" width="2000" height="2000" viewBox="0 0 2000 2000"><g transform="matrix(1,0,0,1,-0.28443113772425477,-0.28443113772459583)"><svg viewBox="0 0 334 334" data-background-color="#2f27ce" preserveAspectRatio="xMidYMid meet" height="2000" width="2000" xmlns="http://www.w3.org/2000/svg" xmlns:xlink="http://www.w3.org/1999/xlink"><g id="tight-bounds" transform="matrix(1,0,0,1,0.04749999999998522,0.04750000000001364)"><svg viewBox="0 0 333.90454557049503 333.90454557049503" height="333.90454557049503" width="333.90454557049503"><g><svg></svg></g><g><svg viewBox="0 0 333.90454557049503 333.90454557049503" height="333.90454557049503" width="333.90454557049503"><g><path d="M0 166.952c0-92.205 74.747-166.952 166.952-166.952 92.205 0 166.952 74.747 166.953 166.952 0 92.205-74.747 166.952-166.953 166.953-92.205 0-166.952-74.747-166.952-166.953zM166.952 324.646c87.092 0 157.693-70.602 157.694-157.694 0-87.092-70.602-157.693-157.694-157.693-87.092 0-157.693 70.602-157.693 157.693 0 87.092 70.602 157.693 157.693 157.694z" data-fill-palette-color="tertiary" fill="#fbfbfe" stroke="transparent"></path><ellipse rx="160.27418187383762" ry="160.27418187383762" cx="166.95227278524752" cy="166.95227278524752" fill="#fbfbfe" stroke="transparent" stroke-width="0" fill-opacity="1" data-fill-palette-color="tertiary"></ellipse></g><g transform="matrix(1,0,0,1,110.28863339196593,71.17305217166896)"><svg viewBox="0 0 113.32727878656317 191.55844122715712" height="191.55844122715712" width="113.32727878656317"><g><svg viewBox="0 0 113.32727878656317 191.55844122715712" height="191.55844122715712" width="113.32727878656317"><g><svg viewBox="0 0 211.4396819716307 357.39899806765436" height="191.55844122715712" width="113.32727878656317"><g transform="matrix(1,0,0,1,0,165.84055684049724)"><svg viewBox="0 0 211.4396819716307 191.55844122715712" height="191.55844122715712" width="211.4396819716307"><g id="textblocktransform"><svg viewBox="0 0 211.4396819716307 191.55844122715712" height="191.55844122715712" width="211.4396819716307" id="textblock"><g><svg viewBox="0 0 211.4396819716307 191.55844122715712" height="191.55844122715712" width="211.4396819716307"><g transform="matrix(1,0,0,1,0,0)"><svg width="211.4396819716307" viewBox="4.15 -35.1 39.35 35.65" height="191.55844122715712" data-palette-color="#2f27ce"><path d="M7.15 0.55L7.15 0.55Q6.15 0.55 5.5-0.05 4.85-0.65 4.85-1.65L4.85-1.65 4.8-28.85Q4.8-30.35 4.67-31.73 4.55-33.1 4.15-34.2L4.15-34.2Q4.45-34.5 5.05-34.8 5.65-35.1 6.5-35.1L6.5-35.1Q7.5-35.1 8.18-34.52 8.85-33.95 8.85-32.9L8.85-32.9 8.85-5.7Q8.85-4.25 8.97-2.85 9.1-1.45 9.5-0.35L9.5-0.35Q9.2-0.1 8.6 0.23 8 0.55 7.15 0.55ZM22.5-32.9L22.5-5.7Q22.5-4.25 22.62-2.85 22.75-1.45 23.15-0.35L23.15-0.35Q22.85-0.1 22.25 0.23 21.65 0.55 20.8 0.55L20.8 0.55Q19.8 0.55 19.15-0.05 18.5-0.65 18.5-1.65L18.5-1.65 18.45-28.85Q18.45-30.35 18.32-31.73 18.2-33.1 17.8-34.2L17.8-34.2Q18.1-34.5 18.7-34.8 19.3-35.1 20.15-35.1L20.15-35.1Q21.15-35.1 21.82-34.52 22.5-33.95 22.5-32.9L22.5-32.9ZM42.85-32.9L42.85-5.7Q42.85-4.25 42.97-2.85 43.1-1.45 43.5-0.35L43.5-0.35Q43.2-0.1 42.6 0.23 42 0.55 41.15 0.55L41.15 0.55Q40.15 0.55 39.5-0.05 38.85-0.65 38.85-1.65L38.85-1.65 38.8-28.85Q38.8-30.35 38.67-31.73 38.55-33.1 38.15-34.2L38.15-34.2Q38.45-34.5 39.05-34.8 39.65-35.1 40.5-35.1L40.5-35.1Q41.5-35.1 42.17-34.52 42.85-33.95 42.85-32.9L42.85-32.9ZM21.05-17.1L21.05-19.5 40.2-19.5 40.2-17.1 21.05-17.1Z" opacity="1" transform="matrix(1,0,0,1,0,0)" fill="#2f27ce" class="wordmark-text-0" data-fill-palette-color="quaternary" id="text-0"></path></svg></g></svg></g></svg></g></svg></g><g transform="matrix(1,0,0,1,40.38497925658146,0)"><svg viewBox="0 0 130.6697234584678 120.61820626935489" height="120.61820626935489" width="130.6697234584678"><g><svg xmlns="http://www.w3.org/2000/svg" xml:space="preserve" viewBox="6 8 52 48" x="0" y="0" height="120.61820626935489" width="130.6697234584678" class="icon-icon-0" data-fill-palette-color="quaternary" id="icon-0"><circle cx="22" cy="32" r="2.0" fill="#2f27ce" data-fill-palette-color="quaternary"></circle><path d="M40 16v-6a2 2 0 0 0-2-2H26a2 2 0 0 0-2 2v6zM26 42h-8c-1.103 0-2 0.897-2 2v2h12v-2c0-1.103-0.897-2-2-2" fill="#2f27ce" data-fill-palette-color="quaternary"></path><path d="M56 20H8a2 2 0 0 0-2 2v32a2 2 0 0 0 2 2h48a2 2 0 0 0 2-2V22a2 2 0 0 0-2-2M32 48a2 2 0 0 1-2 2H14a2 2 0 0 1-2-2v-4c0-3.309 2.691-6 6-6h4c-3.309 0-6-2.691-6-6s2.691-6 6-6 6 2.691 6 6-2.691 6-6 6h4c3.309 0 6 2.691 6 6z m18-4H36a2 2 0 0 1 0-4h14a2 2 0 0 1 0 4m0-6H36a2 2 0 0 1 0-4h14a2 2 0 0 1 0 4m0-6H36a2 2 0 0 1 0-4h14a2 2 0 0 1 0 4" fill="#2f27ce" data-fill-palette-color="quaternary"></path></svg></g></svg></g><g></g></svg></g></svg></g></svg></g></svg></g><defs></defs></svg><rect width="333.90454557049503" height="333.90454557049503" fill="none" stroke="none" visibility="hidden"></rect></g></svg></g></svg>